<svg width="20" height="20" viewBox="0 0 20 20" fill="none" xmlns="http://www.w3.org/2000/svg">
    <path fill-rule="evenodd" clip-rule="evenodd" d="M17.9852 0H11.941V2.01362H16.4595L6.83489 11.6328L8.25952 13.0567L17.9852 3.33636V8.05449H20V2.01362V0H17.9852ZM4.60076 3.82601C5.75108 2.84212 7.1508 2.19582 8.64506 1.95846L8.37402 0.253892C6.56477 0.541282 4.87028 1.32377 3.47792 2.51468C2.08557 3.70559 1.0496 5.25849 0.48449 7.00157C-0.0806196 8.74459 -0.152895 10.61 0.275669 12.3916C0.704233 14.173 1.61696 15.8012 2.91304 17.096C4.20912 18.3907 5.83804 19.3016 7.61965 19.7278C9.40128 20.1539 11.266 20.0786 13.0076 19.5102C14.7492 18.9418 16.2996 17.9026 17.4876 16.5076C18.6755 15.1126 19.4546 13.4162 19.7389 11.606L18.0329 11.3384C17.7979 12.8344 17.154 14.2363 16.1725 15.3889C15.191 16.5416 13.9101 17.4 12.4716 17.8695C11.0331 18.339 9.49298 18.4011 8.02155 18.0492C6.55013 17.6973 5.20462 16.9449 4.13389 15.8752C3.06314 14.8056 2.30891 13.4603 1.95474 11.988C1.60056 10.5158 1.6603 8.97414 2.12733 7.53359C2.59435 6.09306 3.45043 4.80991 4.60076 3.82601Z" fill="black"/>
</svg>
