<svg version="1.1" xmlns="http://www.w3.org/2000/svg" xmlns:xlink="http://www.w3.org/1999/xlink" width="1000" height="1000.001" viewBox="0,0,255.98438,256"><g fill="#ffffff" fill-rule="evenodd" stroke="none" stroke-width="1" stroke-linecap="butt" stroke-linejoin="miter" stroke-miterlimit="10" stroke-dasharray="" stroke-dashoffset="0" font-family="none" font-weight="none" font-size="none" text-anchor="none" style="mix-blend-mode: normal"><g transform="translate(-0.00769,-0.00006) scale(0.256,0.256)"><g transform="translate(-75.54771,-75.54754) scale(1.15108,1.15107)" id="g6397"><g id="g6399"><path d="M500.006,934.393c-239.516,0 -434.374,-194.862 -434.374,-434.379c0,-239.52 194.858,-434.381 434.374,-434.381c239.513,0 434.375,194.862 434.375,434.381c0,239.516 -194.861,434.379 -434.375,434.379zM573.527,331.999h-245.486l-37.247,59.858h245.204zM623.695,332.57l-150.071,238.963h-166.464l38.405,-59.909h99.771l38.112,-59.88h-230.654l-38.104,59.88h54.641l-75.812,119.611h316.389l116.86,-184.295l42.609,64.684h-38.42l-36.385,59.909h113.773l39.506,59.702h72.576z" id="path6401"></path></g></g></g></g></svg>