<svg version="1.1" xmlns="http://www.w3.org/2000/svg" xmlns:xlink="http://www.w3.org/1999/xlink" width="50px" height="50px" viewBox="0,0,256,256"><g fill="#4caff2" fill-rule="nonzero" stroke="none" stroke-width="1" stroke-linecap="butt" stroke-linejoin="miter" stroke-miterlimit="10" stroke-dasharray="" stroke-dashoffset="0" font-family="none" font-weight="none" font-size="none" text-anchor="none" style="mix-blend-mode: normal"><g transform=""><g><g transform="scale(5.12,5.12)"><path d="M25,2c-12.6907,0 -23,10.3093 -23,23c0,12.69071 10.3093,23 23,23c12.69071,0 23,-10.30929 23,-23c0,-12.6907 -10.30929,-23 -23,-23zM25,4c11.60982,0 21,9.39018 21,21c0,11.60982 -9.39018,21 -21,21c-11.60982,0 -21,-9.39018 -21,-21c0,-11.60982 9.39018,-21 21,-21zM11.59961,13c-0.884,0 -1.59961,0.71561 -1.59961,1.59961v5.80078c0,0.884 0.71661,1.59961 1.59961,1.59961h3.90039v-2h-2.90039c-0.331,0 -0.59961,-0.26861 -0.59961,-0.59961v-3.80078c0,-0.331 0.26861,-0.59961 0.59961,-0.59961h3.80078c0.331,0 0.59961,0.26861 0.59961,0.59961v7.80078c0,0.331 -0.26861,0.59961 -0.59961,0.59961h-6.40039v2h7.40039c0.884,0 1.59961,-0.71561 1.59961,-1.59961v-9.80078c0,-0.884 -0.71661,-1.59961 -1.59961,-1.59961zM22.09961,13c-0.882,0 -1.59961,0.71761 -1.59961,1.59961v5.80078c0,0.882 0.71761,1.59961 1.59961,1.59961h5.80078c0.882,0 1.59961,-0.71761 1.59961,-1.59961v-5.80078c0,-0.882 -0.71761,-1.59961 -1.59961,-1.59961zM32.59961,13c-0.884,0 -1.59961,0.71561 -1.59961,1.59961v5.80078c0,0.884 0.71661,1.59961 1.59961,1.59961h3.90039v-2h-2.90039c-0.331,0 -0.59961,-0.26861 -0.59961,-0.59961v-3.80078c0,-0.331 0.26861,-0.59961 0.59961,-0.59961h3.80078c0.331,0 0.59961,0.26861 0.59961,0.59961v7.80078c0,0.331 -0.26861,0.59961 -0.59961,0.59961h-6.40039v2h7.40039c0.884,0 1.59961,-0.71561 1.59961,-1.59961v-9.80078c0,-0.884 -0.71661,-1.59961 -1.59961,-1.59961zM23.09961,15h3.80078c0.331,0 0.59961,0.26861 0.59961,0.59961v3.80078c0,0.331 -0.26861,0.59961 -0.59961,0.59961h-3.80078c-0.331,0 -0.59961,-0.26861 -0.59961,-0.59961v-3.80078c0,-0.331 0.26861,-0.59961 0.59961,-0.59961zM11.59961,28c-0.884,0 -1.59961,0.71661 -1.59961,1.59961v5.80078c0,0.884 0.71661,1.59961 1.59961,1.59961h5.90039v-2h-4.90039c-0.331,0 -0.59961,-0.26861 -0.59961,-0.59961v-3.80078c0,-0.331 0.26861,-0.59961 0.59961,-0.59961h4.90039v-2zM20.59961,28c-0.882,0 -1.59961,0.71761 -1.59961,1.59961v5.80078c0,0.882 0.71761,1.59961 1.59961,1.59961h5.80078c0.882,0 1.59961,-0.71761 1.59961,-1.59961v-5.80078c0,-0.882 -0.71761,-1.59961 -1.59961,-1.59961zM31.09961,28c-0.883,0 -1.59961,0.71561 -1.59961,1.59961v7.40039h2v-6.40039c0,-0.331 0.26861,-0.59961 0.59961,-0.59961h1.65039v7h2v-6.40039c0,-0.331 0.26861,-0.59961 0.59961,-0.59961h1.65039v7h2v-9zM21.59961,30h3.80078c0.331,0 0.59961,0.26861 0.59961,0.59961v3.80078c0,0.331 -0.26861,0.59961 -0.59961,0.59961h-3.80078c-0.331,0 -0.59961,-0.26861 -0.59961,-0.59961v-3.80078c0,-0.331 0.26861,-0.59961 0.59961,-0.59961z"></path></g></g></g></g></svg>