<svg width="24" height="24" viewBox="0 0 24 24" fill="none" xmlns="http://www.w3.org/2000/svg">
    <path d="M6.76 5.34005L4.96 3.55005L3.55 4.96005L5.34 6.75005L6.76 5.34005ZM1 11H4V13H1V11ZM11 1.05005H13V4.00005H11V1.05005ZM19.04 3.54505L20.448 4.95205L18.658 6.74205L17.251 5.33405L19.04 3.54505ZM17.24 18.66L19.03 20.46L20.44 19.05L18.64 17.26L17.24 18.66ZM20 11H23V13H20V11ZM12 6.00005C8.69 6.00005 6 8.69005 6 12C6 15.31 8.69 18 12 18C15.31 18 18 15.31 18 12C18 8.69005 15.31 6.00005 12 6.00005ZM12 16C9.79 16 8 14.21 8 12C8 9.79005 9.79 8.00005 12 8.00005C14.21 8.00005 16 9.79005 16 12C16 14.21 14.21 16 12 16ZM11 20H13V22.9501H11V20ZM3.55 19.0401L4.96 20.4501L6.75 18.65L5.34 17.24L3.55 19.0401Z" fill="#E6E1E6"/>
</svg>
