<?xml version="1.0" encoding="utf-8"?>
<!-- Generator: Adobe Illustrator 22.1.0, SVG Export Plug-In . SVG Version: 6.00 Build 0)  -->
<svg version="1.1" id="图层_1" xmlns="http://www.w3.org/2000/svg" xmlns:xlink="http://www.w3.org/1999/xlink" x="0px" y="0px"
	 viewBox="0 0 239.6 106.7" style="enable-background:new 0 0 239.6 106.7;" xml:space="preserve">
<style type="text/css">
	.st0{fill:#FF7D00;}
</style>
<path class="st0" d="M220.7,59.9v-3.7c0-4.4-3.6-8-8-8h-7.2c-4.4,0-8,3.6-8,8v3.7H184l-2.6,40.9h55.5l-2.6-40.9H220.7z M201.5,56.1
	c0-2.2,1.8-4,4-4h7.2c2.2,0,4,1.8,4,4v3.7h-15.2V56.1z M185.6,96.8l2.1-33h9.8v7.6c0,0.2,0.1,0.3,0.3,0.3h3.4c0.2,0,0.3-0.1,0.3-0.3
	v-7.6h15.2v7.6c0,0.2,0.1,0.3,0.3,0.3h3.4c0.2,0,0.3-0.1,0.3-0.3v-7.6h9.8l2.1,33H185.6z M77.6,27.8v15H86V27.2
	c0-9.8-6.8-14.4-13.3-14.4c-3.2,0-6,1.3-7.7,3.4h-0.1v-2.5h-8.4v29.1h8.4V28.6c0-5.7,3.1-8.1,6.6-8.1C73.9,20.5,77.6,22.1,77.6,27.8
	z M93.2,42.8h8.4V20.5h5.7v-6.9h-5.7v-8h-8.4v8h-5.6v6.9h5.6V42.8z M42.4,42.8h8.4V13.7h-8.4V42.8z M46.6,9.9c2.7,0,4.9-2.2,4.9-4.9
	c0-2.7-2.2-4.9-4.9-4.9c-2.7,0-4.9,2.2-4.9,4.9C41.7,7.7,43.9,9.9,46.6,9.9z M123.2,12.8c-8.8,0-15.2,7.7-15.2,15.4
	c0,7.9,6.6,15.5,15.3,15.5c6.3,0,11.5-3.6,13.8-8l-6.9-2.4c-1.8,2.3-4,3.3-6.9,3.3c-3,0-6.4-1.9-7.2-5.7h17.1c3.7,0,5.6-0.7,5.6-3.5
	C138.5,21.4,133.3,12.8,123.2,12.8z M116.1,25.1c1.3-3.7,4.3-5.1,7.2-5.1c4.2,0,6.6,2.7,7.4,5.1H116.1z M197.1,40.6h0.1v2.1h8.5V1.8
	h-8.5v14h-0.1c-0.7-1-3.8-3-7.8-3c-8.3,0-15.4,6.9-15.4,15.4c0,8.5,7,15.4,15.4,15.4C193.3,43.7,196.4,41.6,197.1,40.6z M181.8,28.2
	c0-4.3,3.4-7.9,7.8-7.9c4.4,0,7.7,3.5,7.7,7.9c0,4.4-3.3,7.9-7.7,7.9C185.2,36.1,181.8,32.6,181.8,28.2z M224.1,43.7
	c8.6,0,15.5-6.9,15.5-15.4c0-8.5-6.9-15.4-15.5-15.4c-8.6,0-15.5,6.9-15.5,15.4C208.6,36.7,215.5,43.7,224.1,43.7z M224.1,20.4
	c4.2,0,7.7,3.5,7.7,7.8s-3.4,7.8-7.7,7.8c-4.2,0-7.7-3.5-7.7-7.8S219.9,20.4,224.1,20.4z M9.1,17.4L26.2,40c1.8,2.3,3.5,3,4.8,3
	c3.2,0,4.9-1.9,4.9-4.7V1.8h-9.1l0,25.3L9.7,4.6c-1.8-2.3-3.5-3-4.8-3C1.7,1.6,0,3.5,0,6.3v36.5h9.1L9.1,17.4z M150,28.6
	c0-5.7,3.1-8.1,6.6-8.1c2.4,0,6.1,1.5,6.1,7.3v15h8.5V27.2c0-9.8-6.8-14.4-13.3-14.4c-3.2,0-6,1.3-7.7,3.4H150v-2.5h-8.4v29.1h8.4
	V28.6z M36.6,52.5l-6.2,8.6c0,0,0,0.1,0,0.1c0,0,0.1,0,0.1,0l9.2-5.3c0.1,0,0.1-0.1,0-0.2l-2.9-3.3C36.7,52.5,36.6,52.5,36.6,52.5z
	 M89.5,64.9c-3.2,0-6,1.3-7.7,3.4h-0.1V53.9h-8.4v40.9h8.4V80.7c0-5.7,3.1-8.1,6.6-8.1c2.4,0,6.1,1.5,6.1,7.3v15h8.5V79.3
	C102.8,69.5,96.1,64.9,89.5,64.9z M121.2,64.9c-8.6,0-15.5,6.9-15.5,15.4c0,8.5,6.9,15.4,15.5,15.4c8.6,0,15.5-6.9,15.5-15.4
	C136.7,71.8,129.8,64.9,121.2,64.9z M121.2,88.2c-4.2,0-7.7-3.5-7.7-7.8c0-4.3,3.4-7.8,7.7-7.8c4.2,0,7.7,3.5,7.7,7.8
	C128.8,84.7,125.4,88.2,121.2,88.2z M155.9,64.9c-4,0-7.1,2-7.8,3H148v-2.1h-8.4v40.9h8.4v-14h0.1c0.7,1,3.8,3,7.8,3
	c8.3,0,15.3-7,15.3-15.4C171.3,71.9,164.3,64.9,155.9,64.9z M155.6,88.2c-4.4,0-7.7-3.5-7.7-7.9c0-4.4,3.3-7.9,7.7-7.9
	c4.4,0,7.8,3.5,7.8,7.9C163.4,84.7,160.1,88.2,155.6,88.2z M20.7,88.3c-2.4,0-5-1-6.4-2.7l17-9.9c3.6-2.1,5.3-3.9,3.8-6.7
	c-2.4-3.8-8.6-7.9-15.2-7.9c-9.4,0-17.1,8.3-17.1,17.5c0,9.9,8.7,17.6,18.2,17.6c8.8,0,16.7-6.3,17.1-15.5h-8.7
	C29,84.8,25.5,88.3,20.7,88.3z M20.4,68.7c2.3,0,4.2,0.9,5.9,2.4l-15.3,8.8C10,74.1,14.5,68.7,20.4,68.7z M20.3,48.9l3.7,10
	c0,0,0.1,0.1,0.1,0.1c0,0,0.1,0,0.1-0.1l0.8-10.6c0-0.1-0.1-0.1-0.1-0.1l-4.3,0.6C20.3,48.8,20.2,48.8,20.3,48.9z M57.6,70.3
	c-4.1-1.4-7.2-2.4-7.2-5.2c0-1.9,1.7-3.7,4.8-3.7c3.2,0,5,1.7,6.5,2.9l7-4.9c-3-3.7-8-6.7-13.4-6.7c-7.4,0-13.8,5.4-13.8,12.5
	c0,5.3,3.6,10.3,11,12.8c4.7,1.5,7.6,2.5,7.6,5.5c0,2.1-2.1,3.9-4.6,3.9c-3.1,0-5.7-2.1-7.6-3.8l-7.4,5.2c3.7,4.3,9.5,7.4,14.8,7.4
	c8.2,0,13.9-6.3,13.9-12.8C69.2,78.2,66.4,73.3,57.6,70.3z M28.9,48.7l-1.5,10.5c0,0,0,0.1,0.1,0.1c0,0,0.1,0,0.1,0l5.7-9
	c0-0.1,0-0.2-0.1-0.2l-4.1-1.5C29,48.6,28.9,48.6,28.9,48.7z"/>
</svg>
