<svg xmlns="http://www.w3.org/2000/svg" xmlns:xlink="http://www.w3.org/1999/xlink" viewBox="0,0,256,256" width="30px" height="30px" fill-rule="nonzero"><g fill="#ffffff" fill-rule="nonzero" stroke="none" stroke-width="1" stroke-linecap="butt" stroke-linejoin="miter" stroke-miterlimit="10" stroke-dasharray="" stroke-dashoffset="0" font-family="none" font-weight="none" font-size="none" text-anchor="none" style="mix-blend-mode: normal"><g transform="scale(8.53333,8.53333)"><path d="M11.18164,3.74219v21.11523l4.58008,1.40039v-17.68164c0,-0.509 -0.00009,-0.76258 0.25391,-1.01758c0.127,-0.254 0.38077,-0.25395 0.63477,-0.12695c0.636,0.254 1.01953,0.76325 1.01953,1.78125v6.99414c1.526,0.763 2.79645,0.763 3.81445,0c1.018,-0.763 1.52734,-1.90645 1.52734,-3.81445c0.001,-2.035 -0.38148,-3.30722 -1.27148,-4.32422c-0.763,-1.018 -2.16127,-1.90892 -4.19727,-2.54492c-2.544,-0.763 -4.70733,-1.39925 -6.36133,-1.78125zM9.91016,16.97266l-5.85156,2.03516l-0.88867,0.38086c-1.399,0.636 -2.16211,1.2722 -2.16211,1.9082c0.127,0.763 0.38106,1.78197 2.28906,2.41797c1.781,0.636 3.18019,0.89005 6.74219,-0.12695v-2.29102c-3.436,1.144 -3.94412,1.01767 -4.45312,0.76367c-0.509,-0.254 -0.50981,-0.50972 -0.38281,-0.63672c0.382,-0.254 1.78125,-0.76367 1.78125,-0.76367l2.92578,-1.01758zM22.85352,17.96289c-0.41341,-0.01391 -0.82673,-0.00636 -1.24023,0.02539c-1.399,0 -2.67222,0.25472 -4.19922,0.63672v2.67188l2.79883,-1.01953l1.52539,-0.50781c0,0 0.63753,-0.12691 1.01953,-0.25391c0.636,-0.127 1.39844,0.12695 1.39844,0.12695c0.382,0 0.63672,0.12586 0.63672,0.38086c0.127,0.254 -0.12767,0.38272 -0.76367,0.63672l-1.39844,0.50977l-5.08789,1.90625v2.67188l2.28906,-0.76367l6.35938,-2.28906l0.76367,-0.38281c1.526,-0.509 2.16216,-1.1452 2.03516,-1.9082c0,-0.762 -0.89002,-1.2703 -2.41602,-1.7793c-1.2405,-0.38175 -2.48048,-0.62039 -3.7207,-0.66211z"></path></g></g></svg>