<svg xmlns="http://www.w3.org/2000/svg" xmlns:xlink="http://www.w3.org/1999/xlink" viewBox="0,0,256,256" width="50px" height="50px" fill-rule="nonzero"><g fill="#ffffff" fill-rule="nonzero" stroke="none" stroke-width="1" stroke-linecap="butt" stroke-linejoin="miter" stroke-miterlimit="10" stroke-dasharray="" stroke-dashoffset="0" font-family="none" font-weight="none" font-size="none" text-anchor="none" style="mix-blend-mode: normal"><g transform="scale(5.12,5.12)"><path d="M25,2c-4.291,0 -8.38144,1.20078 -11.77344,3.30078c-0.219,0.073 -0.59741,0.36102 -0.94141,0.66602c3.045,-2.419 10.08658,2.42614 12.14258,3.86914c0.346,0.243 0.80048,0.243 1.14648,0c2.056,-1.443 9.09758,-6.28914 12.14258,-3.86914c-0.344,-0.305 -0.72341,-0.59302 -0.94141,-0.66602c-3.393,-2.1 -7.48439,-3.30078 -11.77539,-3.30078zM11,8c-1.597,0 -2.76367,1.30078 -2.76367,1.30078c-3.792,4.1 -6.18555,9.59922 -6.18555,15.69922c0,12.7 10.27722,23 22.94922,23c6.685,0 12.77189,-2.9 16.96289,-7.5c0,0 -0.4988,-3.00039 -3.5918,-7.40039c-3.459,-5.217 -10.46598,-11.78769 -12.70898,-13.80469c-0.383,-0.344 -0.95398,-0.34214 -1.33398,0.00586c-1.69,1.547 -6.05072,5.877 -7.01172,7c-2.295,2.4 -8.68108,9.99883 -9.08008,14.29883c0,0 -1.39769,-3.39922 1.69531,-11.19922c1.925,-4.686 7.90373,-11.65241 10.80273,-14.69141c0.385,-0.403 0.37575,-1.03987 -0.03125,-1.42187c-0.96,-0.899 -3.19784,-2.4745 -5.21484,-3.6875c-1.396,-0.9 -2.99128,-1.49961 -4.48828,-1.59961zM38.68945,8c-0.653,0 -4.89538,1.34283 -9.35937,5.29883c-0.422,0.374 -0.43887,1.02664 -0.04687,1.43164c1.617,1.671 6.03945,5.95092 8.68945,10.16992c3.293,5.4 5.28784,9.69961 4.08984,15.59961c3.692,-4.1 5.98828,-9.5 5.98828,-15.5c-0.1,-6 -2.3955,-11.49961 -6.1875,-15.59961c-0.1,-0.1 -0.19983,-0.20078 -0.29883,-0.30078c-0.798,-0.9 -1.977,-1.09961 -2.875,-1.09961z"></path></g></g></svg>